<?xml version="1.0" encoding="UTF-8"?>
<svg version="1.1" viewBox="0 0 1080 1080" width="1080" height="1080" xmlns="http://www.w3.org/2000/svg">
<path transform="translate(672,130)" d="m0 0h19l10 4 8 6 6 8 4 10 1 10-2 12-9 23-16 41-12 31-14 36-8 20-6 16-22 57-17 44-19 49-15 39-14 36-10 25-6 16-22 57-10 26-10 25-6 16-20 52-17 44-19 49-14 36-7 16-5 6-10 7-8 3-9 1-11-2-10-4-7-6-6-9-3-8-1-10 2-11 20-52 14-36 12-31 14-36 11-28 22-57 10-26 17-44 16-41 10-26 12-31 28-72 12-31 15-39 28-72 11-29 12-31 16-41 11-28 8-11 11-7z" fill="#2E486E"/>
<path transform="translate(730,270)" d="m0 0h11l10 3 10 6 12 10 17 13 16 13 12 9 15 12 13 10 10 8 13 10 16 13 13 10 9 7 14 11 15 12 17 13 10 8 18 14 15 12 17 13 16 13 27 21 7 8 4 8 2 9v8l-3 11-6 10-9 8-13 10-28 22-15 12-13 10-28 22-15 12-13 10-28 22-15 12-27 21-15 12-17 13-16 13-27 21-16 13-13 9-11 3h-12l-10-3-11-8-7-10-3-9v-14l3-10 8-11 16-13 13-10 18-14 28-22 10-8 17-13 16-13 13-10 84-66 18-14 14-11 13-10v-2l-17-13-16-13-13-10-98-77-15-12-13-10-28-22-15-12-17-13-16-13-9-7-5-4-6-9-3-10v-13l3-10 7-10 9-7 7-3z" fill="#2E486E"/>
<path transform="translate(339,270)" d="m0 0h12l10 3 9 6 7 8 4 8 1 4v17l-5 12-8 9-17 13-16 13-13 10-28 22-15 12-13 10-14 11-10 8-28 22-18 14-14 11-15 12-14 11-13 10-15 12-15 11-1 2 4 2 14 11 27 21 15 12 14 11 13 10 28 22 15 12 27 21 11 9 13 10 14 11 18 14 15 12 17 13 16 13 6 7 4 9 1 3v17l-5 12-9 10-12 6-5 1h-12l-10-3-9-6-28-22-18-14-15-12-17-13-16-13-13-10-28-22-15-12-14-11-18-14-15-12-13-10-15-12-13-10-42-33-16-13-5-5-5-9-2-6v-16l3-9 6-9 12-10 17-13 16-13 17-13 16-13 16-12 15-12 56-44 15-12 17-13 16-13 26-20 16-13 13-10 28-22 10-7 7-3z" fill="#2E486E"/>
<path transform="translate(677,152)" d="m0 0h10l6 4 4 6v9l-10 27-16 41-38 98-22 57-57 147-22 57-76 196-22 57-19 49-9 22-6 5-2 1h-9l-7-4-4-7v-8l20-52 57-147 22-57 76-196 22-57 76-196 18-46 6-5z" fill="#04FA6F"/>
<path transform="translate(732,292)" d="m0 0h7l7 4 84 66 15 12 17 13 16 13 13 10 28 22 15 12 17 13 16 13 13 10 28 22 15 12 17 13 5 6 1 2v10l-4 6-12 10-13 10-15 12-17 13-16 13-13 10-28 22-15 12-17 13-16 13-13 10-42 33-15 12-17 13-16 13-13 10-14 11-8 6-3 1h-7l-6-3-5-6-1-9 4-8 12-10 13-10 252-198 4-3-1-3-13-10-42-33-15-12-17-13-16-13-13-10-15-12-17-13-16-13-13-10-15-12-17-13-16-13-13-10-15-12-17-13-11-9-3-7 1-9 6-7z" fill="#04FA6F"/>
<path transform="translate(342,292)" d="m0 0h7l6 4 4 4 1 3v9l-4 6-12 10-17 13-16 13-13 10-28 22-15 12-17 13-16 13-13 10-15 12-17 13-16 13-13 10-14 11-15 12-17 13-16 13-11 8v2l16 12 16 13 17 13 16 13 13 10 196 154 9 8 2 4v9l-4 6-5 4-2 1h-7l-8-4-16-13-17-13-16-13-13-10-15-12-17-13-16-13-13-10-28-22-15-12-17-13-16-13-13-10-28-22-15-12-17-13-16-13-9-7-3-6v-8l4-7 15-12 17-13 16-13 17-13 16-13 13-10 42-33 15-12 17-13 16-13 13-10 28-22 15-12 17-13 16-13 26-20z" fill="#04FA6F"/>
</svg>
